<?xml version="1.0" encoding="UTF-8"?>
<svg width="230px" height="230px" viewBox="0 0 230 230" version="1.1" xmlns="http://www.w3.org/2000/svg" xmlns:xlink="http://www.w3.org/1999/xlink">
    <!-- Generator: Sketch 45.2 (43514) - http://www.bohemiancoding.com/sketch -->
    <title>computer (2)</title>
    <desc>Created with Sketch.</desc>
    <defs></defs>
    <g id="Page-6" stroke="none" stroke-width="1" fill="none" fill-rule="evenodd">
        <g id="2Реформа-для-пациентов_1170рх" transform="translate(-86.000000, -2339.000000)" fill-rule="nonzero">
            <g id="computer-(2)" transform="translate(86.000000, 2339.000000)">
                <path d="M114.998821,0 C178.510962,0 229.997641,51.486679 229.997641,114.998821 C229.997641,178.510962 178.510962,229.997641 114.998821,229.997641 C51.486679,229.997641 0,178.510962 0,114.998821 C0,51.486679 51.486679,0 114.998821,0 Z" id="Shape" fill="#FF5B62"></path>
                <path d="M114.998821,182.951444 C160.221208,182.951444 196.883371,185.841688 196.883371,189.406202 C196.883371,192.970716 160.223454,195.86096 114.998821,195.86096 C69.7764328,195.86096 33.1142697,192.970716 33.1142697,189.406202 C33.1142697,185.841238 69.7741867,182.951444 114.998821,182.951444 Z" id="Shape" fill="#C2464C"></path>
                <path d="M29.640946,30.1970731 L200.358941,30.1970731 C205.96738,30.1970731 210.557001,34.786694 210.557001,40.3951326 L210.557001,145.558859 L19.4451326,145.558859 L19.4451326,40.3942341 C19.4451326,34.7857956 24.0347535,30.1961747 29.6431921,30.1961747 L29.640946,30.1970731 L29.640946,30.1970731 Z" id="Shape" fill="#666666"></path>
                <path d="M26.3666241,138.635121 L203.630568,138.635121 L203.630568,40.3964802 C203.630568,38.6099556 202.144567,37.1221583 200.358492,37.1221583 L29.640946,37.1221583 C27.8544213,37.1221583 26.3688702,38.6077095 26.3688702,40.3964802 L26.3688702,138.635121 L26.3666241,138.635121 Z" id="Shape" fill="#DCE3DB"></path>
                <g id="Group" transform="translate(19.316208, 48.515127)" fill="#FFFFFF">
                    <path d="M191.238546,97.0437312 L191.238546,108.195922 C191.238546,113.806606 186.179946,118.393981 179.997412,118.393981 L11.3682623,118.393981 C5.18527885,118.393981 0.127127602,113.806606 0.127127602,108.195922 L0.127127602,97.0437312 L191.238546,97.0437312 Z" id="Shape"></path>
                    <path d="M47.8687083,0.153631237 L143.496966,0.153631237 L157.732113,0.153631237 C159.456646,0.153631237 160.868975,1.56685893 160.868975,3.2904936 L160.868975,21.9535444 L160.868975,90.1199937 L30.4998434,90.1199937 L30.4998434,90.1177476 L30.4998434,21.9539936 L30.4998434,3.29094281 C30.4998434,1.56640972 31.9108251,0.154080451 33.6367058,0.154080451 L47.8718528,0.154080451 C47.872302,0.153631237 47.8687083,0.153631237 47.8687083,0.153631237 Z" id="Shape"></path>
                </g>
                <path d="M52.9493202,48.6687586 L177.046075,48.6687586 C178.770608,48.6687586 180.182937,50.0797403 180.182937,51.805621 L180.182937,58.0779981 L49.8120086,58.0779981 L49.8120086,51.805621 C49.8120086,50.0819863 51.2229903,48.6687586 52.9493202,48.6687586 Z" id="Shape" fill="#828282"></path>
                <path d="M107.853171,51.9179245 L170.828053,51.9179245 C171.292989,51.9179245 171.670329,52.2952644 171.670329,52.7602011 L171.670329,54.3225678 C171.670329,54.7875045 171.292989,55.1648444 170.828053,55.1648444 L107.853171,55.1648444 C107.388235,55.1648444 107.010895,54.7875045 107.010895,54.3225678 L107.010895,52.7602011 C107.010895,52.2961628 107.388235,51.9179245 107.853171,51.9179245 Z" id="Shape" fill="#FFFFFF"></path>
                <path d="M56.0695616,51.3600006 C57.0654694,51.3600006 57.8745041,52.1667892 57.8745041,53.164943 C57.8745041,54.1630968 57.0654694,54.9698854 56.0695616,54.9698854 C55.0714078,54.9698854 54.2623732,54.1630968 54.2623732,53.164943 C54.2628224,52.1672384 55.071857,51.3600006 56.0695616,51.3600006 Z" id="Shape" fill="#21D0C3"></path>
                <path d="M63.1967932,51.3600006 C64.1949471,51.3600006 65.0017357,52.1667892 65.0017357,53.164943 C65.0017357,54.1630968 64.1949471,54.9698854 63.1967932,54.9698854 C62.1986394,54.9698854 61.3918508,54.1630968 61.3918508,53.164943 C61.3918508,52.1672384 62.2013347,51.3600006 63.1967932,51.3600006 Z" id="Shape" fill="#FAD24D"></path>
                <path d="M70.3258217,51.3600006 C71.3217294,51.3600006 72.1307641,52.1667892 72.1307641,53.164943 C72.1307641,54.1630968 71.3217294,54.9698854 70.3258217,54.9698854 C69.3276679,54.9698854 68.5186332,54.1630968 68.5186332,53.164943 C68.5186332,52.1672384 69.3281171,51.3600006 70.3258217,51.3600006 Z" id="Shape" fill="#FF5B62"></path>
                <g id="Group" transform="translate(56.600982, 70.077406)" fill="#63AEFF">
                    <polygon id="Shape" points="0.267731629 0.281657267 116.526149 0.281657267 116.526149 29.8022139 0.267731629 29.8022139"></polygon>
                    <path d="M17.5180039,37.6639106 C20.536723,37.6639106 22.9831432,40.1098816 22.9831432,43.1290498 C22.9831432,46.145972 20.5371722,48.5941891 17.5180039,48.5941891 C14.5010817,48.5941891 12.0528647,46.1482181 12.0528647,43.1290498 C12.0528647,40.1098816 14.4988357,37.6639106 17.5180039,37.6639106 Z" id="Shape"></path>
                </g>
                <path d="M114.998821,107.741317 C118.015743,107.741317 120.46396,110.187288 120.46396,113.206456 C120.46396,116.223378 118.017989,118.671595 114.998821,118.671595 C111.981898,118.671595 109.533681,116.225624 109.533681,113.206456 C109.533681,110.187288 111.980101,107.741317 114.998821,107.741317 Z" id="Shape" fill="#FF5B62"></path>
                <path d="M155.878655,107.741317 C158.895577,107.741317 161.343794,110.187288 161.343794,113.206456 C161.343794,116.223378 158.897823,118.671595 155.878655,118.671595 C152.859487,118.671595 150.413516,116.225624 150.413516,113.206456 C150.413516,110.187288 152.859936,107.741317 155.878655,107.741317 Z" id="Shape" fill="#FAD24D"></path>
                <g id="Group" transform="translate(62.889980, 123.084675)" fill="#DCE3DB">
                    <path d="M0.13880717,0.42720265 L22.3165094,0.42720265 L22.3165094,1.63064734 L0.13880717,1.63064734 L0.13880717,0.42720265 Z M0.13880717,7.98792589 L15.0360958,7.98792589 L15.0360958,9.19137057 L0.13880717,9.19137057 L0.13880717,7.98792589 L0.13880717,7.98792589 Z M0.13880717,4.20778887 L22.3165094,4.20778887 L22.3165094,5.40943671 L0.13880717,5.40943671 L0.13880717,4.20778887 Z" id="Shape"></path>
                    <path d="M41.0208879,0.42720265 L63.1985901,0.42720265 L63.1985901,1.63064734 L41.0208879,1.63064734 L41.0208879,0.42720265 L41.0208879,0.42720265 Z M41.0208879,7.98792589 L55.9181765,7.98792589 L55.9181765,9.19137057 L41.0208879,9.19137057 L41.0208879,7.98792589 L41.0208879,7.98792589 Z M41.0208879,4.20778887 L63.1985901,4.20778887 L63.1985901,5.40943671 L41.0208879,5.40943671 L41.0208879,4.20778887 L41.0208879,4.20778887 Z" id="Shape"></path>
                    <path d="M81.9007225,0.42720265 L104.076628,0.42720265 L104.076628,1.63064734 L81.9007225,1.63064734 L81.9007225,0.42720265 Z M81.9007225,7.98792589 L96.795765,7.98792589 L96.795765,9.19137057 L81.9007225,9.19137057 L81.9007225,7.98792589 Z M81.9007225,4.20778887 L104.076628,4.20778887 L104.076628,5.40943671 L81.9007225,5.40943671 L81.9007225,4.20778887 Z" id="Shape"></path>
                </g>
                <path d="M56.2919226,102.325591 L173.128927,102.325591 L173.128927,103.057412 L56.2919226,103.057412 C56.2919226,103.057412 56.2919226,102.325591 56.2919226,102.325591 Z" id="Shape" fill="#ECF0F1"></path>
                <path d="M114.998821,152.277305 C116.938976,152.277305 118.509429,153.847758 118.509429,155.787914 C118.509429,157.72807 116.938976,159.298522 114.998821,159.298522 C113.058665,159.298522 111.488212,157.72807 111.488212,155.787914 C111.488212,153.847758 113.058665,152.277305 114.998821,152.277305 Z" id="Shape" fill="#B6B6B8"></path>
                <polygon id="Shape" fill="#C2C2C4" points="137.039512 182.951444 153.254346 188.146605 76.7432949 188.146605 89.82486 182.951444 89.82486 166.909108 137.039512 166.909108"></polygon>
                <polygon id="Shape" fill="#B0B0B0" points="137.039512 182.951444 89.82486 166.908659 137.039512 166.908659"></polygon>
                <polygon id="Shape" fill="#ECF0F1" points="89.82486 182.951444 137.039512 182.951444 153.254346 188.146605 153.254346 190.38504 114.998821 190.38504 76.7410488 190.38504 76.7410488 188.146605 89.8226139 182.951444"></polygon>
                <g id="Group" transform="translate(124.432318, 66.034479)" fill="#DCE3DB">
                    <polygon id="Shape" points="39.1714732 2.30177327 47.1284034 2.30177327 47.1284034 0.432144005 39.1714732 0.432144005"></polygon>
                    <polygon id="Shape" points="26.2242232 2.30177327 34.1811533 2.30177327 34.1811533 0.432144005 26.2242232 0.432144005"></polygon>
                    <polygon id="Shape" points="13.2792193 2.30177327 21.2361494 2.30177327 21.2361494 0.432144005 13.2792193 0.432144005"></polygon>
                    <polygon id="Shape" points="0.33511375 2.30177327 8.29204386 2.30177327 8.29204386 0.432144005 0.33511375 0.432144005"></polygon>
                </g>
                <path d="M159.155223,73.3072559 L160.52892,75.1997951 L159.647113,75.8385776 L158.908605,74.8238029 C158.184471,75.3237782 154.136603,78.4548008 158.734309,83.0525076 C162.761514,87.0797123 166.421711,83.8431244 167.741053,82.3616162 L166.765809,81.5772883 L167.448615,80.7287228 L169.270178,82.1936101 L169.060844,82.4550527 L169.056801,82.4590957 L169.052758,82.4631386 L169.048715,82.4671815 C168.979986,82.5565751 168.872623,82.6931362 168.727078,82.8656345 L168.720789,82.8741695 L168.586025,83.0399296 L168.579736,83.0358866 C167.179086,84.6229602 163.295181,88.1461467 158.850656,84.6063393 C157.466627,85.4652367 155.431238,85.2037941 153.36081,84.9365117 C150.858687,84.6126283 148.294124,84.2829051 147.372785,86.1273784 C146.943337,86.9885219 147.41007,87.5051181 148.212816,87.907614 L148.215062,87.9053679 C148.777478,88.1856776 149.474209,88.4201673 150.181721,88.6587001 C152.650602,89.4883986 155.260986,90.3666122 154.194551,93.2317 C152.519881,97.7296812 144.353617,94.8187736 142.436371,94.0613985 C142.187507,94.4742263 141.88833,94.8560584 141.550521,95.1943166 C140.48229,96.2625478 139.004824,96.9246895 137.371931,96.9246895 C135.741284,96.9246895 134.265615,96.2629971 133.197384,95.1943166 L133.195138,95.1920705 C132.126907,94.1238393 131.464765,92.646374 131.464765,91.0175235 C131.464765,89.3868762 132.126457,87.907614 133.195138,86.8389336 C134.263369,85.7707023 135.740834,85.1085607 137.371931,85.1085607 C139.000781,85.1085607 140.477797,85.7702531 141.546478,86.8389336 L141.548724,86.8411796 L141.55097,86.8434257 C142.619201,87.9116569 143.281343,89.3891223 143.281343,91.0179727 C143.281343,91.7461489 143.148825,92.4455753 142.908046,93.0906468 C144.785761,93.8291548 151.885591,96.3483477 153.186515,92.856157 C153.864828,91.0345937 151.798443,90.3392102 149.842116,89.6838067 C149.08474,89.43045 148.340393,89.1793392 147.7362,88.8770181 L147.7362,88.8747721 C146.371038,88.1919666 145.598839,87.2751205 146.412366,85.6485161 C147.677802,83.1194405 150.6224,83.4990264 153.500066,83.8682804 C155.216064,84.0901922 156.90466,84.3080611 157.995801,83.8390815 L157.968849,83.8139255 C152.547732,78.3928093 157.319734,74.616266 158.276111,73.9482845 L158.273865,73.9460385 L159.155672,73.3050099 L159.155672,73.3072559 L159.155223,73.3072559 L159.155223,73.3072559 Z M137.373728,88.0634913 C138.190848,88.0634913 138.929806,88.3954606 139.463023,88.9304746 C139.998486,89.4659379 140.330006,90.2039967 140.330006,91.0197696 C140.330006,91.8350933 139.998037,92.5758474 139.463023,93.1090646 C138.927559,93.6445278 138.189501,93.974251 137.373728,93.974251 C136.558404,93.974251 135.81765,93.6422818 135.284433,93.1090646 C134.74897,92.5736013 134.419246,91.8355425 134.419246,91.0197696 C134.419246,90.2026491 134.751216,89.4636918 135.284433,88.9304746 C135.819447,88.3954606 136.557955,88.0634913 137.373728,88.0634913 Z M138.699359,89.6941387 C138.3611,89.3558804 137.89257,89.1443005 137.373728,89.1443005 C136.857131,89.1443005 136.388152,89.3558804 136.048097,89.6941387 C135.709839,90.0323969 135.500056,90.5013765 135.500056,91.0197696 C135.500056,91.5363659 135.709389,92.0053454 136.048097,92.3454005 C136.386355,92.6836588 136.857131,92.8934418 137.373728,92.8934418 C137.890324,92.8934418 138.359304,92.684108 138.699359,92.3454005 C139.037617,92.0071423 139.249197,91.5363659 139.249197,91.0197696 C139.249646,90.5036225 139.037617,90.034643 138.699359,89.6941387 Z M140.786857,87.6048437 C139.915381,86.7333682 138.707894,86.1938621 137.373728,86.1938621 C136.041808,86.1938621 134.83432,86.7333682 133.960599,87.6070897 C133.089123,88.480362 132.547371,89.6860528 132.547371,91.0202188 C132.547371,92.3543848 133.089123,93.5596264 133.960599,94.4333479 C134.833871,95.3048233 136.041808,95.8465756 137.373728,95.8465756 C138.705648,95.8465756 139.913135,95.3048233 140.786857,94.4333479 C141.660129,93.5600756 142.200085,92.3543848 142.200085,91.0202188 C142.200085,89.6860528 141.660578,88.4785652 140.789103,87.6070897 L140.786857,87.6048437 Z" id="Shape" fill="#FEFEFE"></path>
                <circle id="Oval" fill="#FF5B62" cx="59.1044524" cy="70.3577159" r="7.28265968"></circle>
                <polygon id="Shape" fill="#FFFFFF" points="57.7339 65.3112442 60.4745555 65.3112442 60.4745555 68.9876127 64.1509241 68.9876127 64.1509241 71.7282682 60.4745555 71.7282682 60.4745555 75.4046368 57.7339 75.4046368 57.7339 71.7282682 54.0575315 71.7282682 54.0575315 68.9876127 57.7339 68.9876127"></polygon>
            </g>
        </g>
    </g>
</svg>