<?xml version="1.0" encoding="UTF-8"?>
<svg width="230px" height="230px" viewBox="0 0 230 230" version="1.1" xmlns="http://www.w3.org/2000/svg" xmlns:xlink="http://www.w3.org/1999/xlink">
    <!-- Generator: Sketch 45.2 (43514) - http://www.bohemiancoding.com/sketch -->
    <title>smartphone (4)</title>
    <desc>Created with Sketch.</desc>
    <defs></defs>
    <g id="Page-6" stroke="none" stroke-width="1" fill="none" fill-rule="evenodd">
        <g id="2Реформа-для-пациентов_1170рх" transform="translate(-853.000000, -2339.000000)" fill-rule="nonzero">
            <g id="smartphone-(4)" transform="translate(853.000000, 2339.000000)">
                <circle id="Oval" fill="#63AEFF" cx="114.998821" cy="114.998821" r="114.998821"></circle>
                <path d="M46.710185,1.36291571 L127.06606,1.36291571 C128.334192,1.36291571 129.362892,2.3916161 129.362892,3.65974762 L129.362892,158.005235 C129.362892,159.273366 128.334192,160.302067 127.06606,160.302067 L46.710185,160.302067 C45.4420535,160.302067 44.4133531,159.273366 44.4133531,158.005235 L44.4133531,3.65974762 C44.4138023,2.3916161 45.4416042,1.36291571 46.710185,1.36291571 Z" id="Shape" fill="#666666"></path>
                <path d="M50.2315746,22.812891 L123.542874,22.812891 C124.528449,22.812891 125.327152,23.612043 125.327152,24.5971696 L125.327152,137.068711 C125.327152,138.054287 124.528,138.85299 123.542874,138.85299 L50.2315746,138.85299 C49.2459988,138.85299 48.4472961,138.053838 48.4472961,137.068711 L48.4472961,24.5967204 C48.4468469,23.6111446 49.2459988,22.812891 50.2315746,22.812891 Z" id="Shape" fill="#FFFFFF"></path>
                <g id="Group" transform="translate(53.007269, 10.781139)" fill="#C0C1C4">
                    <path d="M14.5882293,0.393511589 L53.171232,0.393511589 C54.0579807,0.393511589 54.7771726,1.11225422 54.7771726,1.99855372 L54.7771726,1.99855372 C54.7771726,2.88485322 54.0579807,3.60359585 53.171232,3.60359585 L14.5882293,3.60359585 C13.7014806,3.60359585 12.9822887,2.88485322 12.9822887,1.99855372 L12.9822887,1.99855372 C12.9822887,1.11225422 13.7014806,0.393511589 14.5882293,0.393511589 Z" id="Shape"></path>
                    <circle id="Oval" cx="33.5625855" cy="139.273454" r="5.33037502"></circle>
                    <circle id="Oval" cx="1.98597572" cy="2.13466561" r="1.82156335"></circle>
                </g>
                <circle id="Oval" fill="#21D063" cx="86.8878979" cy="115.133136" r="12.8803171"></circle>
                <path d="M81.9905653,106.88197 C80.8266515,107.70538 78.6789587,110.444688 80.353629,113.847035 C81.496879,116.168574 84.706514,120.146365 86.7275285,121.752306 C89.6986308,124.107536 92.8292042,122.59054 93.8817129,121.626077 C94.7778951,120.804464 91.6868526,115.760688 89.2009015,118.955948 C87.4539077,121.200671 81.0530554,113.254522 83.6113299,112.024124 C87.2584996,110.268596 82.984227,106.180747 81.9905653,106.88197 Z" id="Shape" fill="#FEFEFE"></path>
                <circle id="Oval" fill="#FF5B62" cx="86.8878979" cy="61.0459559" r="29.3260469"></circle>
                <path d="M82.7996,60.2921746 C85.5236346,60.2921746 88.2481183,60.2921746 90.9721529,60.2921746 L91.0179727,60.8505478 L87.0235606,66.9073021 L82.7331163,60.7930484 L82.7996,60.2948699 L82.7996,60.2921746 L82.7996,60.2921746 Z" id="Shape" fill="#B3B3B3"></path>
                <polygon id="Shape" fill="#F0BA7D" points="82.8539549 58.7729324 82.7834283 62.1878583 76.9885658 65.3561656 76.9885658 76.9728433 86.7445986 76.9728433 96.4983853 76.9728433 96.4983853 65.3561656 91.1118585 62.0095203 90.817174 58.5945943"></polygon>
                <path d="M80.1748418,48.812058 C80.1748418,48.812058 79.8428725,48.0816358 78.9507332,48.4428039 C78.0585939,48.8035229 78.9902641,52.4120601 79.3325652,52.9165276 C79.6730696,53.418749 80.2206616,53.0989085 80.4219095,53.0804907 C80.7062621,55.2322265 80.7314181,56.7132855 81.5921124,57.6202489 C82.407436,58.4791463 84.2748192,60.2283862 85.258149,60.838419 C85.9243336,60.9794722 86.4220628,61.0625768 86.8887963,61.0854868 C87.3555298,61.0603308 87.8537083,60.9772262 88.5194437,60.838419 C89.5032226,60.2283862 91.3706058,58.4791463 92.1854803,57.6202489 C93.0466238,56.7137347 93.0713306,55.2317773 93.3556831,53.0804907 C93.554685,53.0993577 94.1049723,53.4209951 94.4450274,52.9165276 C94.7855317,52.4120601 95.7185495,48.8062182 94.8268594,48.4428039 C93.9347202,48.082085 93.6027509,48.812058 93.6027509,48.812058 C93.6027509,48.812058 94.4845583,45.9775167 92.9181486,43.1892445 C91.8436283,41.2782876 89.394962,40.286872 86.8905932,40.2140993 C84.3884704,40.286872 81.9380073,41.2782876 80.8630378,43.1892445 C79.294382,45.9779659 80.1784355,48.812058 80.1784355,48.812058 L80.1748418,48.812058 L80.1748418,48.812058 Z" id="Shape" fill="#FED298"></path>
                <path d="M79.940352,63.1945472 L81.3284237,62.648752 L82.4465177,61.6443092 L86.39511,64.6383214 L87.378889,64.6383214 L91.3292781,61.6402662 L93.8354438,63.196344 L98.1883289,70.597147 L94.7401611,89.3060176 C92.2402844,89.9991551 89.6069911,90.3702059 86.8869995,90.3702059 C84.6692293,90.3702059 82.5071616,90.1231382 80.4299954,89.6541586 L74.249258,71.186516 L79.9381059,63.1945472 L79.940352,63.1945472 L79.940352,63.1945472 Z" id="Shape" fill="#186FCC"></path>
                <g id="Group" transform="translate(80.858546, 60.194695)" fill="#63AEFF">
                    <polygon id="Shape" points="11.7096651 2.06413899 10.1163025 0.097479469 6.52303857 4.44227866 9.60869051 7.86978257 11.7128096 2.06234213"></polygon>
                    <polygon id="Shape" points="0.34589489 2.02865107 1.94150352 0.0970302548 5.53701352 4.44182944 2.32917533 7.83384543 0.34589489 2.026405"></polygon>
                </g>
                <path d="M81.2044406,62.2233462 L70.6375763,65.6593852 C70.2081276,65.7981923 69.9381499,66.1638526 69.8510023,66.6076762 L66.7428897,82.3535303 C68.8362276,84.3327679 71.2206563,86.0051921 73.8243014,87.3016241 L75.3678012,82.2596446 C75.3844221,82.2012468 75.4405739,82.1662081 75.5003194,82.172497 C75.5600649,82.178786 75.6063339,82.2286488 75.6103769,82.2883943 L75.8322886,88.2076891 C79.2431716,89.5980068 82.9756919,90.3657138 86.8847534,90.3657138 L86.8847534,88.3990543 L81.2017453,62.2193033 L81.2044406,62.2233462 Z" id="Shape" fill="#FFFFFF"></path>
                <g id="Group" transform="translate(76.366404, 61.991552)" fill="#EEF3F7">
                    <polygon id="Shape" points="4.83803632 0.231794498 3.62830263 0.602845379 0.422710508 6.07382442 4.47057915 6.2000536 1.9850773 7.61507815 10.5228413 26.4106471 4.83983317 0.230896069"></polygon>
                    <path d="M16.2018065,0.267282415 L26.7709168,3.66783347 C27.2003656,3.80664065 27.4703433,4.17230096 27.5574908,4.61612453 L30.6651542,20.3619787 C28.5718163,22.3412162 26.1873877,24.0136404 23.5837425,25.3123185 L22.0379966,20.270339 C22.0213757,20.2119411 21.9652239,20.1769024 21.9054785,20.1831914 C21.8452838,20.1894804 21.7994639,20.2393432 21.7972178,20.2990887 L21.5753061,26.2183834 C18.1644231,27.6087012 14.4319028,28.3764082 10.5228413,28.3764082 L10.5228413,28.3764082 L10.5228413,26.4097487 L16.2036033,0.265036344 L16.2018065,0.267282415 Z" id="Shape"></path>
                </g>
                <polygon id="Shape" fill="#FFFFFF" points="92.5682107 62.2588341 93.2402351 62.464125 96.9853334 68.1013132 92.9374648 68.2275424 95.4229666 69.642567 86.8892455 88.402648 92.5700076 62.2579357 92.5682107 62.2579357 92.5682107 62.2588341"></polygon>
                <path d="M88.0864012,88.2791141 C87.7297252,88.2791141 87.4413297,88.5675096 87.4413297,88.9223888 C87.4413297,89.2790648 87.7297252,89.5656634 88.0864012,89.5656634 C88.4430773,89.5656634 88.7314727,89.2772679 88.7314727,88.9223888 C88.7314727,88.5675096 88.4430773,88.2791141 88.0864012,88.2791141 Z" id="Shape" fill="#D9DADA"></path>
                <path d="M92.8292042,49.6565805 L93.4513657,49.6359167 L93.6503676,48.9261583 L94.2374905,48.3412815 C94.6233654,45.428577 94.7374658,40.8964555 91.847222,41.0276261 C91.847222,41.0276261 91.5857794,37.7223084 86.3717509,38.3700752 C81.1559254,39.0173928 78.8006957,42.3851512 79.0810053,45.1940873 C79.3613149,48.0034725 79.2490114,48.3435276 79.2490114,48.3435276 L79.8338882,48.9284044 L79.9232818,49.735193 L80.4358352,49.7019512 C80.4358352,49.7019512 80.5953062,48.6211419 80.7556756,48.1458734 C80.9151467,47.6706048 80.8657331,46.7079389 80.8657331,46.7079389 C80.8657331,46.7079389 87.0258066,47.1001029 88.6896958,44.9834058 C89.7188454,43.6761927 92.0776689,41.4108057 92.1985075,44.5476681 C92.2339954,45.4770922 91.8872021,46.8714529 92.5488945,47.8880245 C93.210587,48.9027992 92.8292042,49.6579282 92.8292042,49.6579282 L92.8292042,49.6565805 L92.8292042,49.6565805 Z" id="Shape" fill="#666666"></path>
                <polygon id="Shape" fill="#104A87" points="86.8869995 88.4017496 88.5508887 80.7372579 87.4202167 65.6306355 88.0360893 65.3669468 87.3784397 64.6342785 86.3946608 64.6342785 85.7181443 65.3503258 86.3528839 65.6306355 85.2491647 80.8598933"></polygon>
                <path d="M88.0280034,88.2791141 C87.70412,88.2791141 87.4408805,88.5428028 87.4408805,88.866237 C87.4408805,89.1901204 87.7045692,89.4533599 88.0280034,89.4533599 C88.3514376,89.4533599 88.6151263,89.1896712 88.6151263,88.866237 C88.6155755,88.5428028 88.3518868,88.2791141 88.0280034,88.2791141 Z" id="Shape" fill="#FFFFFF"></path>
                <path d="M97.2422839,78.5774363 C96.0967878,78.3802313 95.3313269,77.293133 95.5280827,76.1480862 C95.7252877,75.0025901 96.8141828,74.2348831 97.9574328,74.433885 C99.1029289,74.63109 99.8683898,75.7199851 99.671634,76.8632351 C99.4748782,78.0091804 98.3855339,78.7764381 97.2422839,78.5774363 Z" id="Shape" fill="#FEFEFE"></path>
                <path d="M97.263397,78.4570469 C96.1848338,78.2701738 95.4624975,77.2473132 95.6493705,76.16875 C95.8362436,75.0919837 96.8591042,74.3678505 97.9376674,74.5547236 C99.0162305,74.7415967 99.7385669,75.7667034 99.5516938,76.8430205 C99.3648207,77.9193375 98.3419601,78.64392 97.263397,78.4570469 Z" id="Shape" fill="#186FCC"></path>
                <path d="M97.4125361,77.5860207 C96.8173273,77.4822522 96.4166283,76.9157932 96.5181507,76.3201352 C96.6219192,75.7249265 97.1883782,75.3242274 97.7835869,75.4279959 C98.3787957,75.5317644 98.7794947,76.0982234 98.6779723,76.6938814 C98.5742038,77.2890901 98.0077448,77.6897891 97.4125361,77.5882667 L97.4125361,77.5860207 Z" id="Shape" fill="#EBECEC"></path>
                <polygon id="Shape" fill="#FEFEFE" points="97.5414605 75.5443424 98.0230181 75.627447 98.2822146 74.127521 97.8006571 74.0444164"></polygon>
                <path d="M81.4160204,78.9947562 L82.3184916,78.8164182 C82.7021205,78.7396026 83.0197149,78.5154447 83.2209629,78.2126744 C83.4222108,77.909904 83.5116044,77.5298689 83.4347888,77.14624 L82.3746434,71.8014901 C81.9743936,69.7849679 80.397652,68.755369 78.5922603,68.5271683 C77.901369,68.4400207 77.1772358,68.4710165 76.4760125,68.6102729 C75.7747892,68.74908 75.0919837,68.9961478 74.4886891,69.3406951 C72.9141936,70.2391233 71.8513529,71.7889121 72.2520519,73.8099266 L73.3121973,79.1546764 C73.3890129,79.5383053 73.6154168,79.8558997 73.9159411,80.0571477 L73.9159411,80.0571477 C74.2191607,80.2606417 74.5987466,80.3477892 74.9801294,80.2709736 L75.8826006,80.0926356 L75.8098279,79.7215847 L74.9073567,79.8999227 C74.6252502,79.9560745 74.3471867,79.8913876 74.1270718,79.7444946 L74.1270718,79.7444946 C73.90516,79.5953555 73.7393999,79.3626626 73.6832482,79.0828022 L72.6231028,73.7358062 C72.2601378,71.9016649 73.2308895,70.4906833 74.6728669,69.6695198 C75.2438181,69.3456364 75.8848467,69.1111466 76.5487852,68.9808745 C77.2127237,68.8506024 77.89508,68.8191574 78.5446436,68.9018128 C80.194158,69.1111466 81.6383814,70.0450628 82.0013465,71.8751613 L83.0614918,77.2221572 C83.1176436,77.5024668 83.0529568,77.7827764 82.9038177,78.0024422 C82.7546786,78.2243539 82.5219857,78.390114 82.2421252,78.4462657 L81.339654,78.6246037 L81.4124267,78.9956546 L81.4160204,78.9947562 L81.4160204,78.9947562 Z" id="Shape" fill="#186FCC"></path>
                <path d="M82.6607928,72.5916578 L82.4990757,71.7745373 C82.0862479,69.6955742 80.4618896,68.6354289 78.6088813,68.4009391 C77.9054119,68.3115455 77.1669039,68.3425412 76.4531026,68.4862898 C75.7370552,68.627343 75.044367,68.8802506 74.4280452,69.2310868 C72.8077298,70.1542219 71.7161394,71.7520766 72.1289672,73.8350826 L72.2906843,74.6522031 L72.908803,74.5300168 L72.7470859,73.7128963 C72.3966989,71.9429926 73.3382517,70.576034 74.7366553,69.7791281 C75.2950285,69.4615337 75.9234791,69.2333329 76.5748396,69.1048576 C77.2244033,68.9763824 77.8941816,68.9471835 78.5311672,69.0257959 C80.1308188,69.2270439 81.5292224,70.1317612 81.8796094,71.899868 L82.0413265,72.7169886 L82.6616913,72.5948023 L82.6607928,72.5916578 Z" id="Shape" fill="#4D4D4D"></path>
                <g id="Group" transform="translate(75.018762, 78.163261)" fill="#104A87">
                    <path d="M0.15183438,2.15308339 L0.633391941,2.05740077 C0.753332117,2.19216502 0.942900485,2.26269164 1.13336728,2.22540686 C1.4199659,2.16700902 1.60638977,1.88894547 1.55023801,1.60324528 C1.49184017,1.31664665 1.21377661,1.13022278 0.928076419,1.18637455 C0.737160408,1.22365932 0.589818169,1.36066964 0.529623474,1.53271865 L0.0480659133,1.62840127 L0.15183438,2.15308339 Z" id="Shape"></path>
                    <path d="M6.78088748,0.835538305 L6.29932992,0.931220918 C6.23913523,1.10326993 6.09179299,1.24072946 5.90087698,1.27756502 C5.61427836,1.33371679 5.33441794,1.14684371 5.27871539,0.860694297 C5.22256362,0.574095674 5.40943671,0.294235263 5.69558611,0.23853271 C5.88650213,0.201247936 6.07517207,0.271774556 6.19556146,0.406538799 L6.67891587,0.310856187 L6.78268434,0.83598752 L6.7813367,0.83598752 L6.7813367,0.835538305 L6.78088748,0.835538305 Z" id="Shape"></path>
                </g>
                <path d="M76.7450918,68.4377746 L76.5604648,67.5101474 L76.1957029,67.5829201 L75.830941,67.6556928 L76.0178141,68.5914059 C76.1566212,68.549629 76.2981237,68.5163871 76.4409738,68.4876374 C76.5429454,68.4669736 76.6444678,68.4503526 76.7482363,68.4355286 L76.7450918,68.4377746 Z" id="Shape" fill="#666666"></path>
                <g id="Group" transform="translate(75.467976, 78.163261)" fill="#104A87">
                    <path d="M0.609732441,1.83643791 C0.751705729,1.80936053 0.842451541,1.67031452 0.815374162,1.52907306 C0.788296782,1.38709977 0.649250779,1.29635396 0.508009312,1.32343134 C0.366036024,1.35050872 0.275290211,1.48955472 0.302367591,1.63079619 C0.32944497,1.77203765 0.467027332,1.86351529 0.609732441,1.83643791 Z" id="Shape"></path>
                    <path d="M5.37984648,0.888146853 C5.52181977,0.861069473 5.61256559,0.72202347 5.58256092,0.580782003 C5.55548354,0.438808715 5.41643754,0.348062902 5.27519607,0.375140282 C5.1339546,0.402217662 5.04247697,0.541263665 5.07248163,0.682505132 C5.09955901,0.82447842 5.23860502,0.915224232 5.37984648,0.885219569 L5.37984648,0.888146853 Z" id="Shape"></path>
                </g>
                <path d="M97.3545874,77.5756887 C96.7899253,77.4782093 96.4125854,76.9431952 96.5100648,76.378533 C96.6079935,75.8138709 97.1425584,75.436531 97.7072205,75.5340104 C98.2718827,75.6314899 98.6492226,76.166504 98.5517431,76.7311661 C98.4542636,77.2953791 97.9188004,77.672719 97.3545874,77.5756887 Z" id="Shape" fill="#FEFEFE"></path>
                <g id="Group" transform="translate(75.467976, 61.542338)" fill="#4D4D4D">
                    <path d="M5.74230439,0.959521409 C5.72568346,0.959521409 0.0305465617,1.00713811 0.993212469,5.98892295 L0.464038209,6.09089456 C-0.620813945,0.474370135 5.71939446,0.422710508 5.73601539,0.420464438 L5.74230439,0.958173766 L5.74230439,0.959521409 L5.74230439,0.959521409 Z" id="Shape"></path>
                    <path d="M17.1065238,0.446968072 C18.0359478,0.472124064 19.8328044,0.725031626 21.2145871,2.40733859 C22.5671709,4.05281 23.5154619,7.07602118 22.8061528,12.6175268 L22.2729356,12.5487971 C22.959784,7.18518021 22.0716877,4.29718249 20.7995132,2.74963977 C19.5542916,1.23713575 17.9339762,1.00893496 17.0939458,0.986025043 L17.1065238,0.448315714 L17.1065238,0.446968072 L17.1065238,0.446968072 L17.1065238,0.446968072 Z" id="Shape"></path>
                </g>
                <path d="M86.9826821,158.881202 L86.9849282,158.881202 C88.518096,156.28744 91.5889239,156.14459 94.4643436,157.059639 L112.307579,162.757022 L111.863755,158.984971 L109.286613,150.252248 L101.155388,132.317373 L93.0178741,114.208653 C91.744352,111.372315 92.9203946,107.955143 95.7275338,106.766073 C98.534673,105.579249 101.825167,106.786737 103.105427,109.619032 L117.110576,140.64805 L118.488316,140.122918 L114.91347,133.020843 C113.516863,130.244699 114.851029,126.841902 117.62313,125.580509 C120.397027,124.321362 123.604865,125.659571 125.003269,128.433468 L128.887174,136.151416 L130.445049,135.558004 L127.851286,130.619793 C126.407063,127.868806 127.755604,124.366283 130.560946,123.179459 C133.368085,121.990389 136.495065,123.283228 137.941085,126.034664 L140.856036,131.582908 L142.723419,130.871353 L141.356011,127.983355 C140.026337,125.176216 141.260329,121.731642 144.065671,120.544818 C146.87281,119.357995 150.11389,120.590638 151.443564,123.397777 L154.278105,129.379513 L154.856693,130.354757 L167.498477,163.748887 C169.214475,168.28011 169.048266,172.80145 168.042026,175.803548 C167.753631,176.664692 167.396955,177.399157 166.994459,177.975948 L181.602903,211.249689 L145.857586,227.398039 L133.072952,190.758786 C123.458421,190.314962 98.0728808,172.151887 88.8855532,166.487746 C86.3066148,164.896629 85.4495142,161.473168 86.9826821,158.881652 L86.9826821,158.881202 L86.9826821,158.881202 Z" id="Shape" fill="#FED198"></path>
                <path d="M148.70201,226.113736 L145.857137,227.399836 L133.072502,190.760583 C123.457972,190.316759 98.0724316,172.153684 88.885104,166.489542 C88.4224134,166.20519 88.0158746,165.861092 87.6668352,165.470725 C101.146853,172.610085 123.799824,188.826716 134.447996,188.976304 L148.70201,226.115532 L148.70201,226.113736 L148.70201,226.113736 Z" id="Shape" fill="#F0B97D"></path>
                <polygon id="Shape" fill="#FF5B62" points="136.415105 211.093811 177.261698 193.240245 185.583839 209.452832 143.125016 228.632479 136.415105 211.092015 136.415105 211.093811"></polygon>
                <g id="Group" transform="translate(87.147544, 107.811394)" fill="#FFFFFF">
                    <polygon id="Shape" points="47.2878744 95.3174013 85.562267 78.3577705 88.8199679 85.9494896 50.5478214 102.90912 47.2901204 95.3151552"></polygon>
                    <path d="M86.491691,92.8462743 C88.6016499,91.928979 91.052113,92.8858051 91.9649161,94.9836352 C92.8777193,97.0792192 91.9065183,99.5233933 89.7965595,100.440239 C87.6866006,101.357535 85.2361375,100.398462 84.3210883,98.3028785 C83.4105312,96.2054977 84.3817322,93.7635696 86.491691,92.8462743 Z" id="Shape"></path>
                    <path d="M13.7486481,1.95273388 L15.8087441,6.37434868 L9.02426291,9.44113364 L6.96192078,5.01951883 C5.3393593,1.53990608 12.4832118,-1.64097926 13.7486481,1.95273388 Z M4.60489418,50.6547344 L4.60489418,50.6547344 L10.0219675,52.8621727 L7.28355811,59.867218 L1.86648476,57.6597797 C-1.65445569,56.2240913 1.11539872,49.2298271 4.60714025,50.6551836 L4.60489418,50.6551836 L4.60489418,50.6547344 Z" id="Shape"></path>
                </g>
                <rect id="Rectangle-path" fill="#EEF3F7" x="73.760513" y="93.4068935" width="27.4609098" height="3.64132984"></rect>
            </g>
        </g>
    </g>
</svg>