<?xml version="1.0" encoding="UTF-8"?>
<svg width="231px" height="230px" viewBox="0 0 231 230" version="1.1" xmlns="http://www.w3.org/2000/svg" xmlns:xlink="http://www.w3.org/1999/xlink">
    <!-- Generator: Sketch 45.2 (43514) - http://www.bohemiancoding.com/sketch -->
    <title>nurse (3)</title>
    <desc>Created with Sketch.</desc>
    <defs></defs>
    <g id="Page-6" stroke="none" stroke-width="1" fill="none" fill-rule="evenodd">
        <g id="2Реформа-для-пациентов_1170рх" transform="translate(-469.000000, -2339.000000)" fill-rule="nonzero">
            <g id="nurse-(3)" transform="translate(469.500000, 2339.000000)">
                <circle id="Oval" fill="#FAD24D" cx="114.998821" cy="114.998371" r="114.998371"></circle>
                <path d="M20.1063758,179.969111 L209.890816,179.969111 C189.168118,210.177415 154.400291,229.997641 114.99927,229.997641 C75.5973496,229.997641 40.8295226,210.177864 20.1063758,179.969111 Z" id="Shape" fill="#C1C1C1"></path>
                <path d="M117.872443,109.656317 C111.639597,93.9338217 98.5485986,79.7045145 115.020832,51.0406093 C121.805313,39.2361601 132.169133,31.4503806 142.875253,34.0872676 C153.581823,31.4503806 163.944744,39.2366093 170.730573,51.0406093 C187.201459,79.7040653 174.11091,93.9329233 167.878962,109.656317 L142.876152,109.717859 L117.873342,109.656317 L117.872443,109.656317 Z" id="Shape" fill="#666666"></path>
                <path d="M100.763674,134.236416 C100.05661,135.37742 98.3913737,144.273657 96.4840104,151.985316 C109.587587,161.229245 125.572423,166.661591 142.827187,166.661591 C160.084647,166.661591 176.068585,161.228346 189.173958,151.985316 C187.265247,144.273657 185.599561,135.376522 184.893397,134.236416 C172.885903,114.848334 154.380526,123.311977 153.116887,101.128435 C153.116887,101.128435 147.163452,105.571613 142.619201,105.611143 C138.072256,105.65292 132.531649,101.407397 132.531649,101.407397 C131.272501,123.572522 112.762183,114.861361 100.762775,134.234619 L100.763674,134.236416 Z" id="Shape" fill="#FED298"></path>
                <path d="M153.439872,104.261704 C153.291631,103.289155 153.18337,102.251022 153.116887,101.130232 C153.116887,101.130232 147.163452,105.573409 142.619201,105.61294 C138.072256,105.654717 132.531649,101.409194 132.531649,101.409194 C132.466962,102.550198 132.354658,103.604953 132.201476,104.590529 C132.318272,104.683965 132.434169,104.775605 132.550965,104.868143 L132.550965,104.885213 C132.900453,105.188433 138.220946,109.765476 142.617854,109.719656 C147.013414,109.766374 152.334356,105.189331 152.683844,104.885213 L152.682946,104.868143 C152.941693,104.669141 153.192355,104.466995 153.437625,104.262153 L153.439872,104.261704 L153.439872,104.261704 Z" id="Shape" fill="#F0BA7D"></path>
                <path d="M132.552312,101.423569 C132.901801,101.688156 138.222293,105.651123 142.619201,105.611143 C147.014762,105.650674 152.335703,101.686809 152.685192,101.423569 C159.329069,97.550894 164.779384,86.1300736 163.548537,73.7546732 C162.541849,63.6163592 151.576082,78.4808552 143.937645,57.5649955 C133.126857,80.2103297 122.857822,66.8138655 121.688068,75.3970001 C120.397027,84.8525086 125.70584,96.749496 132.552312,101.423569 Z" id="Shape" fill="#FED298"></path>
                <path d="M123.829472,117.27993 C117.286668,120.776164 105.31601,123.517718 100.764123,130.837213 C100.177898,131.781012 90.137513,162.373393 86.7711022,179.968213 L106.479924,179.968213 L111.930239,163.081355 C111.92934,170.813678 112.087464,178.069834 117.46276,179.968213 L194.932884,179.968213 C191.508973,162.395854 185.301732,131.870405 184.892947,130.837213 C181.871084,123.211803 167.870876,120.256423 161.322232,116.739076 C151.139446,153.681549 135.962746,156.20164 123.829472,117.283074 L123.828574,117.27993 L123.829472,117.27993 L123.829472,117.27993 Z" id="Shape" fill="#63AEFF"></path>
                <g id="Group" transform="translate(113.201964, 22.909921)" fill="#FFFFFF">
                    <path d="M14.9893775,90.6981323 C14.5644209,102.191276 16.5185025,118.475289 29.4140928,122.636359 C17.2731822,123.143522 9.39396615,105.649327 0.419566009,101.066444 L14.9893775,90.6981323 Z" id="Shape"></path>
                    <path d="M44.5638398,90.6981323 C45.0094602,102.191276 42.9583485,118.475289 29.4140928,122.636359 C42.1641379,123.143522 50.4382132,105.649327 59.8622767,101.066444 L44.5638398,90.6981323 Z" id="Shape"></path>
                    <path d="M9.63204965,0.243923279 L50.2720039,0.243923279 C52.7835602,0.243923279 55.0327754,2.12298604 54.8387149,4.40005253 L53.2588288,22.8641014 C48.1045457,17.8001104 11.7819885,17.3720093 6.64432638,22.8641014 L5.06444024,4.40005253 C4.87082895,2.1216384 7.12004416,0.243923279 9.63204965,0.243923279 Z" id="Shape"></path>
                </g>
                <path d="M143.153766,25.0674968 C147.417258,25.0674968 150.873062,28.5250981 150.873062,32.7876911 C150.873062,37.0525301 147.417258,40.5078853 143.153766,40.5078853 C138.891173,40.5078853 135.433572,37.0520809 135.433572,32.7876911 C135.433123,28.5250981 138.890724,25.0674968 143.153766,25.0674968 Z" id="Shape" fill="#FF5B62"></path>
                <polygon id="Shape" fill="#FFFFFF" points="141.683937 27.3760083 144.623595 27.3760083 144.623595 31.3160655 148.565449 31.3160655 148.565449 34.2575197 144.623595 34.2575197 144.623595 38.1993738 141.683937 38.1993738 141.683937 34.2575197 137.740736 34.2575197 137.740736 31.3160655 141.683937 31.3160655"></polygon>
                <rect id="Rectangle-path" fill="#D9DADA" x="188.48127" y="158.12832" width="1.72049017" height="2.22630529"></rect>
                <path d="M20.1063758,179.968213 L209.890816,179.968213 C208.172123,182.473929 206.35595,184.907322 204.448587,187.264798 L25.5481559,187.264798 C23.6403435,184.907322 21.8250691,182.473929 20.1059266,179.968213 L20.1063758,179.968213 Z" id="Shape" fill="#FFFFFF"></path>
                <path d="M25.5490544,187.265697 L204.449934,187.265697 C201.035008,191.488309 197.327644,195.461609 193.357939,199.159989 L25.5499528,187.265697 L25.5490544,187.265697 Z" id="Shape" fill="#959595"></path>
                <path d="M189.341066,159.658792 C196.970519,159.658792 203.155748,165.843123 203.155748,173.473475 L175.525934,173.473475 C175.526383,165.844471 181.710714,159.658792 189.341066,159.658792 Z" id="Shape" fill="#FFFFFF"></path>
                <path d="M189.341066,159.658792 C196.970519,159.658792 203.155748,165.844022 203.155748,173.473475 L201.437055,173.473475 C200.455073,161.278209 189.341066,159.658792 189.341066,159.658792 Z" id="Shape" fill="#EBECEC"></path>
                <rect id="Rectangle-path" fill="#D9DADA" x="187.947604" y="173.474822" width="2.79321354" height="2.24157857"></rect>
                <path d="M175.193965,175.715952 L203.489065,175.715952 C204.658819,175.715952 205.614747,176.672778 205.614747,177.840735 L205.614747,179.968213 L173.067834,179.968213 L173.067834,177.840735 C173.067834,176.671879 174.023762,175.715952 175.193516,175.715952 L175.193965,175.715952 Z" id="Shape" fill="#FF5B62"></path>
                <circle id="Oval" fill="#EBECEC" cx="189.341964" cy="156.666577" r="2.2074383"></circle>
                <path d="M188.92734,158.834035 C187.904928,158.639974 187.133628,157.742894 187.133628,156.66478 C187.133628,155.475261 188.073384,154.505408 189.251223,154.459138 C190.272736,154.653199 191.044935,155.55028 191.044935,156.628394 C191.044935,157.817463 190.105179,158.787317 188.92734,158.834035 Z" id="Shape" fill="#FFFFFF"></path>
                <rect id="Rectangle-path" fill="#FF5B62" x="66.8475566" y="177.007892" width="100.77715" height="2.9603212"></rect>
                <g id="Group" transform="translate(68.280550, 164.412376)" fill="#FEFEFE">
                    <path d="M48.9549081,12.5964138 L0.325231039,12.5964138 C16.5346742,9.43888757 29.9634817,-5.76251902 48.9553573,3.12158908 L48.9549081,12.5964138 L48.9549081,12.5964138 Z" id="Shape"></path>
                    <path d="M48.9549081,12.5964138 L97.5850343,12.5964138 C81.3755912,9.43888757 67.9467836,-5.76251902 48.9549081,3.12158908 L48.9549081,12.5964138 L48.9549081,12.5964138 Z" id="Shape"></path>
                </g>
                <g id="Group" transform="translate(71.425049, 172.049017)" fill="#EBECEC">
                    <path d="M45.8104091,4.95887492 L91.5323229,4.95887492 C77.5303181,0.976142332 63.137497,-1.93656217 45.8104091,3.20020155 L45.8104091,4.95887492 Z" id="Shape"></path>
                    <path d="M45.8104091,4.95887492 L0.0875967578,4.95887492 C14.0896016,0.976142332 28.4824227,-1.93656217 45.8108583,3.20020155 L45.8104091,4.95887492 L45.8104091,4.95887492 Z" id="Shape"></path>
                </g>
                <path d="M174.392567,159.209129 L175.273925,159.077509 C175.171504,158.39111 175.119395,157.688988 175.119395,156.974738 C175.119395,153.047708 176.711859,149.492178 179.285407,146.917731 C181.858506,144.344633 185.414934,142.751719 189.342413,142.751719 C193.268545,142.751719 196.824973,144.344184 199.398521,146.917731 C201.97162,149.492178 203.564533,153.047258 203.564533,156.974738 C203.564533,157.688988 203.511975,158.39111 203.410004,159.077509 L204.291362,159.209129 C204.399622,158.480054 204.455774,157.734359 204.455774,156.974738 C204.455774,152.801987 202.763135,149.023647 200.029218,146.287933 C197.294851,143.553567 193.514714,141.861377 189.342413,141.861377 C185.168765,141.861377 181.390425,143.554016 178.655609,146.287933 C175.920793,149.0223 174.228154,152.802437 174.228154,156.974738 C174.228154,157.734808 174.284755,158.480503 174.392567,159.209129 Z M178.596762,158.580678 L179.47812,158.449058 C179.406695,157.967501 179.36986,157.475162 179.36986,156.975187 C179.36986,154.221953 180.485258,151.727916 182.288404,149.923423 C184.092897,148.119828 186.586036,147.003531 189.340167,147.003531 C192.093401,147.003531 194.587438,148.119828 196.391931,149.923423 C198.195526,151.727018 199.311823,154.221953 199.311823,156.975187 C199.311823,157.47651 199.274987,157.96795 199.202664,158.449058 L200.084022,158.580678 C200.162635,158.056445 200.201716,157.520084 200.201716,156.974288 C200.201716,153.976233 198.985244,151.260285 197.020382,149.294074 L197.018585,149.292277 C195.052824,147.327415 192.336426,146.110943 189.339269,146.110943 C186.341214,146.110943 183.625265,147.327415 181.659055,149.292277 L181.657258,149.294074 C179.691497,151.259835 178.475025,153.976233 178.475025,156.974288 C178.475025,157.520084 178.515903,158.055547 178.592719,158.580678 L178.596762,158.580678 Z M182.388129,158.014219 L183.269487,157.882599 C183.225914,157.586118 183.203004,157.283348 183.203004,156.975187 C183.203004,155.279403 183.889403,153.744439 184.998513,152.63488 L185.00031,152.63488 C186.110318,151.524872 187.645732,150.836226 189.340617,150.836226 C191.035502,150.836226 192.570466,151.523524 193.680924,152.63488 C194.790932,153.744888 195.478679,155.280302 195.478679,156.975187 C195.478679,157.284246 195.455769,157.586118 195.412195,157.882599 L196.293553,158.014219 C196.344314,157.674164 196.370818,157.32782 196.370818,156.975636 C196.370818,155.034133 195.582447,153.276358 194.31162,152.005531 C193.039895,150.733806 191.281671,149.946333 189.341515,149.946333 C187.400012,149.946333 185.642237,150.733806 184.370511,152.005531 L184.37141,152.006429 C183.098786,153.279951 182.311314,155.037277 182.311314,156.976535 C182.311314,157.330066 182.338267,157.676859 182.388579,158.015118 L182.388129,158.014219 Z" id="Shape" fill="#FEFEFE"></path>
                <rect id="Rectangle-path" fill="#FFFFFF" x="187.947604" y="173.474822" width="2.11984154" height="2.24157857"></rect>
                <rect id="Rectangle-path" fill="#D9DADA" x="187.947604" y="173.474822" width="2.11984154" height="1"></rect>
                <path d="M11.7689613,64.2798485 L83.0861986,64.2798485 C87.2310975,64.2798485 90.6222151,66.8870874 90.6222151,70.062133 L90.6222151,152.22879 C90.6222151,155.404285 87.2261562,158.011075 83.0861986,158.011075 L8.32214121,158.011075 L8.31899671,158.00209 C8.08540535,157.421706 7.85540771,156.839075 7.63080064,156.254198 L7.32174131,155.443367 C7.10566931,154.867923 6.89408945,154.290683 6.6861033,153.711197 L6.35009112,152.758414 C6.15782747,152.206779 5.97095438,151.653347 5.7872258,151.09722 C5.66054741,150.71404 5.53656431,150.330411 5.41392885,149.946333 C5.26164525,149.46792 5.11160773,148.988609 4.96606235,148.508848 C4.82366146,148.039419 4.68350665,147.56999 4.54604712,147.097417 C4.42925145,146.694472 4.31425263,146.290628 4.20149988,145.885887 C4.05909899,145.374681 3.92119025,144.861678 3.78552758,144.347777 C3.68310676,143.959656 3.58248279,143.571086 3.48410489,143.181168 C3.34260244,142.620549 3.20559212,142.059031 3.07307395,141.495268 L2.84038102,140.490825 C2.69798014,139.862823 2.56186826,139.233924 2.42935008,138.602778 L2.2581995,137.769036 C2.11984154,137.08084 1.98777258,136.3895 1.86109419,135.695913 L1.74250166,135.033322 C1.61312799,134.296162 1.49094174,133.556306 1.37504449,132.814653 L1.2865493,132.240109 C1.1657107,131.435566 1.05161031,130.629676 0.947392627,129.819743 L0.902920427,129.463516 C0.794659818,128.605068 0.695832707,127.743475 0.606439093,126.879187 L0.578587816,126.595733 C0.49009263,125.721113 0.413277011,124.844696 0.344996462,123.963787 L0.326129468,123.72211 C0.256501275,122.809756 0.200349508,121.895605 0.152732809,120.977412 L0.146893025,120.864659 C0.0983778972,119.910977 0.0615423375,118.954151 0.037733988,117.993282 L0.0368355597,117.947462 C0.012577996,116.967726 0.000449214143,115.983947 0.000449214143,114.998821 C0.000449214143,114.028967 0.0134764243,113.06136 0.0372847738,112.097796 L0.0413277011,111.96932 C0.066034479,111.00935 0.10197161,110.050727 0.150486738,109.097045 L0.151385166,109.081323 L0.152283594,109.062456 C0.200798722,108.121352 0.260544203,107.183393 0.330621609,106.24768 L0.346344104,106.044635 C0.415972296,105.143511 0.494584771,104.244185 0.586224456,103.347553 L0.605989878,103.147653 C0.697180349,102.256412 0.79915196,101.367867 0.911006281,100.482466 L0.946943413,100.204851 C1.05610245,99.3603286 1.17379655,98.5171536 1.30047494,97.6771232 L1.3561775,97.315955 C1.48195746,96.5001821 1.61762013,95.6857569 1.76002101,94.8758238 L1.84941463,94.3767469 C1.9850773,93.6297038 2.12792739,92.8844575 2.27841413,92.1423557 L2.40688938,91.5134559 C2.55647769,90.7951625 2.71100735,90.0791152 2.8745213,89.3671108 L3.03174625,88.6856529 C3.18717434,88.0239605 3.34799301,87.3654125 3.51510067,86.707763 L3.74779359,85.8043934 C3.90726461,85.1975051 4.07077856,84.591066 4.24013229,83.9877714 C4.32548298,83.682755 4.41128288,83.378637 4.49887964,83.074519 C4.6691318,82.4842517 4.84432531,81.8957811 5.02401097,81.3095567 C5.13721294,80.9420995 5.25086411,80.5755408 5.36676136,80.2103297 C5.52218946,79.7197878 5.68210969,79.2305936 5.84337757,78.7431963 C5.98802452,78.308357 6.13446833,77.8748653 6.28405664,77.4427213 C6.43723866,76.9979993 6.5940144,76.5532773 6.75348542,76.1108014 C6.91879623,75.6512553 7.0863531,75.1935061 7.25660526,74.7371046 C7.39810772,74.3579678 7.54275467,73.9783819 7.68919848,73.6001436 C7.89538777,73.0660279 8.10517078,72.5346076 8.31899671,72.0054334 C8.44657352,71.6873897 8.57639641,71.3706938 8.70801616,71.0535486 C8.92902951,70.519433 9.15363659,69.9880126 9.38228658,69.45794 L9.79601281,68.5127934 C10.0574554,67.922526 10.322941,67.3372 10.5933679,66.751874 L10.895689,66.1041072 C11.1782447,65.5030586 11.466191,64.903807 11.7590786,64.3085982 L11.7730043,64.2798485 L11.7689613,64.2798485 Z" id="Shape" fill="#EBECEC"></path>
                <path d="M45.8989042,176.378093 L17.7394665,176.378093 C18.506275,177.590522 19.2955443,178.788127 20.106825,179.969111 L48.4189956,179.969111 L48.4189956,178.173602 C48.4185464,177.18623 47.2842807,176.378093 45.8989042,176.378093 Z" id="Shape" fill="#EBECEC"></path>
                <g id="Group" transform="translate(9.433497, 149.588310)" fill="#959595">
                    <path d="M38.9850494,28.8597626 L9.64911978,28.8597626 L9.66484228,28.8835709 L9.68056477,28.9073793 C9.99187018,29.3777065 10.3063201,29.8453384 10.6243637,30.3098258 L10.6414338,30.3336342 L10.6571563,30.3574425 L10.6742265,30.3812509 L38.986397,30.3812509 L38.986397,28.8602118 L38.9850494,28.8597626 L38.9850494,28.8597626 Z" id="Shape"></path>
                    <path d="M28.7061314,0.018866994 L0.160369449,0.018866994 L0.160369449,11.4455271 C3.04746874,18.0229206 6.60838925,24.4547687 10.6728788,30.3799033 L28.7056821,30.3799033 L28.7056821,0.018866994 L28.7061314,0.018866994 Z" id="Shape"></path>
                </g>
                <path d="M12.5820389,62.6456075 L81.4519576,62.6456075 C85.5968565,62.6456075 88.987974,65.2546432 88.987974,68.4278919 L88.987974,151.001537 C88.987974,154.655445 86.4049927,156.376834 82.2677304,156.376834 L7.67751891,156.376834 C2.72313613,143.536497 0.00134764243,129.585702 0.00134764243,114.998821 C0.00134764243,96.1435061 4.53930891,78.3483371 12.5829374,62.6456075 L12.5820389,62.6456075 L12.5820389,62.6456075 Z" id="Shape" fill="#C1C1C1"></path>
            </g>
        </g>
    </g>
</svg>